<?xml version="1.0" encoding="UTF-8"?> <!-- Generator: Adobe Illustrator 24.0.2, SVG Export Plug-In . SVG Version: 6.00 Build 0) --> <svg xmlns="http://www.w3.org/2000/svg" xmlns:xlink="http://www.w3.org/1999/xlink" id="Layer_1" x="0px" y="0px" viewBox="0 0 1061 900" style="enable-background:new 0 0 1061 900;" xml:space="preserve"> <style type="text/css"> .st0{opacity:0.1;fill-rule:evenodd;clip-rule:evenodd;fill:url(#Rectangle_1_);enable-background:new ;} .st1{opacity:0.1;fill-rule:evenodd;clip-rule:evenodd;fill:url(#Rectangle-Copy-13_1_);enable-background:new ;} .st2{opacity:0.1;fill-rule:evenodd;clip-rule:evenodd;fill:url(#Rectangle-Copy-14_1_);enable-background:new ;} .st3{opacity:0.1;fill-rule:evenodd;clip-rule:evenodd;fill:url(#Rectangle-Copy-11_1_);enable-background:new ;} .st4{opacity:0.1;fill-rule:evenodd;clip-rule:evenodd;fill:url(#Rectangle-Copy-2_1_);enable-background:new ;} .st5{opacity:0.1;fill-rule:evenodd;clip-rule:evenodd;fill:url(#Rectangle-Copy-12_1_);enable-background:new ;} .st6{opacity:0.15;fill-rule:evenodd;clip-rule:evenodd;fill:url(#Rectangle-Copy-10_1_);enable-background:new ;} </style> <title>bg</title> <desc>Created with Sketch.</desc> <g id="Page-1"> <g id="Header" transform="translate(-639.000000, 0.000000)"> <g id="Graphics" transform="translate(58.000000, -420.000000)"> <g id="bg"> <linearGradient id="Rectangle_1_" gradientUnits="userSpaceOnUse" x1="1579.392" y1="311.7912" x2="983.6231" y2="741.4322"> <stop offset="0.442" style="stop-color:#EE7601"></stop> <stop offset="0.8031" style="stop-color:#ED0C6E"></stop> </linearGradient> <path id="Rectangle" class="st0" d="M1101.7,568.3l697.9-488.7c29.6-20.7,70.5-13.5,91.2,16.1l0,0 c20.7,29.6,13.5,70.5-16.1,91.2l-697.9,488.7c-29.6,20.7-70.5,13.5-91.2-16.1l0,0C1064.8,629.8,1072,589,1101.7,568.3z"></path> <linearGradient id="Rectangle-Copy-13_1_" gradientUnits="userSpaceOnUse" x1="1886.3258" y1="737.4062" x2="1290.557" y2="1167.0471"> <stop offset="0.442" style="stop-color:#EE7601"></stop> <stop offset="0.8031" style="stop-color:#ED0C6E"></stop> </linearGradient> <path id="Rectangle-Copy-13" class="st1" d="M1137.7,1189.3l697.9-488.7c29.6-20.7,70.5-13.5,91.2,16.1l0,0 c20.7,29.6,13.5,70.5-16.1,91.2l-697.9,488.7c-29.6,20.7-70.5,13.5-91.2-16.1l0,0C1100.8,1250.8,1108,1210,1137.7,1189.3z"></path> <linearGradient id="Rectangle-Copy-14_1_" gradientUnits="userSpaceOnUse" x1="1999.403" y1="894.2065" x2="1403.6342" y2="1323.8475"> <stop offset="0.442" style="stop-color:#EE7601"></stop> <stop offset="0.8031" style="stop-color:#ED0C6E"></stop> </linearGradient> <path id="Rectangle-Copy-14" class="st2" d="M1541.7,1136.3l697.9-488.7c29.6-20.7,70.5-13.5,91.2,16.1l0,0 c20.7,29.6,13.5,70.5-16.1,91.2l-697.9,488.7c-29.6,20.7-70.5,13.5-91.2-16.1l0,0C1504.8,1197.8,1512,1157,1541.7,1136.3z"></path> <linearGradient id="Rectangle-Copy-11_1_" gradientUnits="userSpaceOnUse" x1="1779.0559" y1="588.6586" x2="1183.2871" y2="1018.2996"> <stop offset="0.442" style="stop-color:#EE7601"></stop> <stop offset="0.8031" style="stop-color:#ED0C6E"></stop> </linearGradient> <path id="Rectangle-Copy-11" class="st3" d="M560.7,1379.3l697.9-488.7c29.6-20.7,70.5-13.5,91.2,16.1l0,0 c20.7,29.6,13.5,70.5-16.1,91.2l-697.9,488.7c-29.6,20.7-70.5,13.5-91.2-16.1l0,0C523.8,1440.8,531,1400,560.7,1379.3z"></path> <linearGradient id="Rectangle-Copy-2_1_" gradientUnits="userSpaceOnUse" x1="1664.8794" y1="430.3339" x2="1069.1106" y2="859.9749"> <stop offset="0.442" style="stop-color:#EE7601"></stop> <stop offset="0.8031" style="stop-color:#ED0C6E"></stop> </linearGradient> <path id="Rectangle-Copy-2" class="st4" d="M609.7,1103.3l697.9-488.7c29.6-20.7,70.5-13.5,91.2,16.1l0,0 c20.7,29.6,13.5,70.5-16.1,91.2l-697.9,488.7c-29.6,20.7-70.5,13.5-91.2-16.1l0,0C572.8,1164.8,580,1124,609.7,1103.3z"></path> <linearGradient id="Rectangle-Copy-12_1_" gradientUnits="userSpaceOnUse" x1="1780.6115" y1="590.8156" x2="1184.8427" y2="1020.4566"> <stop offset="0.442" style="stop-color:#EE7601"></stop> <stop offset="0.8031" style="stop-color:#ED0C6E"></stop> </linearGradient> <path id="Rectangle-Copy-12" class="st5" d="M1391.7,783.3l697.9-488.7c29.6-20.7,70.5-13.5,91.2,16.1l0,0 c20.7,29.6,13.5,70.5-16.1,91.2l-697.9,488.7c-29.6,20.7-70.5,13.5-91.2-16.1l0,0C1354.8,844.8,1362,804,1391.7,783.3z"></path> <linearGradient id="Rectangle-Copy-10_1_" gradientUnits="userSpaceOnUse" x1="1675.449" y1="444.9904" x2="1079.6802" y2="874.6313"> <stop offset="0.442" style="stop-color:#EE7601"></stop> <stop offset="0.8031" style="stop-color:#ED0C6E"></stop> </linearGradient> <path id="Rectangle-Copy-10" class="st6" d="M1440.7,526.3l697.9-488.7c29.6-20.7,70.5-13.5,91.2,16.1l0,0 c20.7,29.6,13.5,70.5-16.1,91.2l-697.9,488.7c-29.6,20.7-70.5,13.5-91.2-16.1l0,0C1403.8,587.8,1411,547,1440.7,526.3z"></path> </g> </g> </g> </g> </svg> 